# xmcd
#
# Track frame offsets: 
#        150
#        9865
#        21149
#        32427
#        44396
#        72929
#        86700
#        95723
#        105658
#        118803
#        127662
#        140514
#        153922
#        165920
#        193969
#        205254
#        225084
#        236637
#        247089
#        258577
#        270109
#        281945
#        295145
#
# Disc length: 4050 seconds
#
# Revision: 0
# Processed by: cddbd v1.5.2PL0 Copyright (c) Steve Scherf et al.
# Submitted via: ExactAudioCopy v1.0b1
#
DISCID=390fd017
DTITLE=Various Artist - Mr Joe's Jamabalaya and Loaded Down With The Blues (dis
DTITLE=c 1)
DYEAR=2012
DGENRE=R and B
TTITLE0=Matthew Jacobs - Loaded Down
TTITLE1=Edgar Blanchard - Tight Like That
TTITLE2=The Pitter Pats - Nervous Condition
TTITLE3=Eddie Lang - I'm Gonna Make You Eat Those Words
TTITLE4=Diamond Joe - Moanin' And Screamin' - Parts 1 and 2
TTITLE5=Polka Dot Slim - Ain't Broke Ain't Hungry
TTITLE6=Matthew Jacobs - Early Morning Blues
TTITLE7=Nolan Pitts - Way In The Middle Of The Night
TTITLE8=Matthew Jacobs - Bad Luck And Trouble
TTITLE9=Edgar Blanchard - Somebody's Doin' Me Wrong
TTITLE10=Matthew Jacobs - (If I Only Had A) Chance For Your Love
TTITLE11=Polka Dot Slim - A Thing You Gotta Face
TTITLE12=Nolan Pitts - What Is Life
TTITLE13=Eddie Lang - The Fooler - Parts 1 and 2
TTITLE14=Allen and Allen - Beverly Baby
TTITLE15=Jessie Hill - Ooh Poo Pah Doo - Parts 1 and 2
TTITLE16=Lee Dorsey - Lottie Mo
TTITLE17=Aaron Neville - Over You
TTITLE18=Ernie K-Doe - Mother-In-Law
TTITLE19=Roy Montrell - Mudd
TTITLE20=The Del Royals - Always Naggin'
TTITLE21=Lee Diamond - I Need Money
TTITLE22=Chris Kenner - I Like It Like That - Part 1
EXTD=
EXTT0=
EXTT1=
EXTT2=
EXTT3=
EXTT4=
EXTT5=
EXTT6=
EXTT7=
EXTT8=
EXTT9=
EXTT10=
EXTT11=
EXTT12=
EXTT13=
EXTT14=
EXTT15=
EXTT16=
EXTT17=
EXTT18=
EXTT19=
EXTT20=
EXTT21=
EXTT22=
PLAYORDER=
